HIERARCHY
ROOT Hips
{
  OFFSET 35.5533 98.5456 -5.52103
  CHANNELS 6 Xposition Yposition Zposition Zrotation Xrotation Yrotation
  JOINT spine
  {
    OFFSET 0 8.30104 0.477351
    CHANNELS 3 Zrotation Xrotation Yrotation
    JOINT spine1
    {
      OFFSET 0 10.4565 0
      CHANNELS 3 Zrotation Xrotation Yrotation
      JOINT spine2
      {
        OFFSET 0 10.0192 0
        CHANNELS 3 Zrotation Xrotation Yrotation
        JOINT Neck
        {
          OFFSET 0 25.7235 1.22641
          CHANNELS 3 Zrotation Xrotation Yrotation
          JOINT Head
          {
            OFFSET 0 7.77175 0
            CHANNELS 3 Zrotation Xrotation Yrotation
            End Site
            {
              OFFSET 0 18.812 -6.20394
            }
          }
        }
        JOINT RightShoulder
        {
          OFFSET -4.2188 10.82 -0.587439
          CHANNELS 3 Zrotation Xrotation Yrotation
          JOINT RightArm
          {
            OFFSET 0 14.1914 0
            CHANNELS 3 Zrotation Xrotation Yrotation
            JOINT RightArmRoll
            {
              OFFSET 0 7.16409 0
              CHANNELS 3 Zrotation Xrotation Yrotation
              JOINT RightForeArm
              {
                OFFSET 0 20.8665 0
                CHANNELS 3 Zrotation Xrotation Yrotation
                JOINT RightForeArmRoll
                {
                  OFFSET 0 8.03921 0
                  CHANNELS 3 Zrotation Xrotation Yrotation
                  JOINT RightHand
                  {
                    OFFSET 0 16.133 0
                    CHANNELS 3 Zrotation Xrotation Yrotation
                    End Site
                    {
                      OFFSET 0 0 0
                    }
                  }
                }
              }
            }
          }
        }
        JOINT LeftShoulder
        {
          OFFSET 4.2188 10.82 -0.587439
          CHANNELS 3 Zrotation Xrotation Yrotation
          JOINT LeftArm
          {
            OFFSET 0 14.1914 0
            CHANNELS 3 Zrotation Xrotation Yrotation
            JOINT LeftArmRoll
            {
              OFFSET 0 7.16409 0
              CHANNELS 3 Zrotation Xrotation Yrotation
              JOINT LeftForeArm
              {
                OFFSET 0 20.8665 0
                CHANNELS 3 Zrotation Xrotation Yrotation
                JOINT LeftForeArmRoll
                {
                  OFFSET 0 8.03921 0
                  CHANNELS 3 Zrotation Xrotation Yrotation
                  JOINT LeftHand
                  {
                    OFFSET 0 16.133 0
                    CHANNELS 3 Zrotation Xrotation Yrotation
                    End Site
                    {
                      OFFSET 0 0 0
                    }
                  }
                }
              }
            }
          }
        }
      }
    }
  }
  JOINT RightUpLeg
  {
    OFFSET -7.35773 -1.34921 -1.13181
    CHANNELS 3 Zrotation Xrotation Yrotation
    JOINT RightUpLegRoll
    {
      OFFSET 0 18.9168 0
      CHANNELS 3 Zrotation Xrotation Yrotation
      JOINT RightLeg
      {
        OFFSET 0 -23.4256 0
        CHANNELS 3 Zrotation Xrotation Yrotation
        JOINT RightLegRoll
        {
          OFFSET 0 23.5023 0
          CHANNELS 3 Zrotation Xrotation Yrotation
          JOINT RightFoot
          {
            OFFSET 0 19.5617 0
            CHANNELS 3 Zrotation Xrotation Yrotation
            JOINT RightToeBase
            {
              OFFSET 0 16.3526 0
              CHANNELS 3 Zrotation Xrotation Yrotation
              End Site
              {
                OFFSET 0.00693125 7.91944 -0.912836
              }
            }
          }
        }
      }
    }
  }
  JOINT LeftUpLeg
  {
    OFFSET 7.35773 -1.34921 -1.13181
    CHANNELS 3 Zrotation Xrotation Yrotation
    JOINT LeftUpLegRoll
    {
      OFFSET 0 18.9169 0
      CHANNELS 3 Zrotation Xrotation Yrotation
      JOINT LeftLeg
      {
        OFFSET 0 23.4255 0
        CHANNELS 3 Zrotation Xrotation Yrotation
        JOINT LeftLegRoll
        {
          OFFSET 0 23.7195 0
          CHANNELS 3 Zrotation Xrotation Yrotation
          JOINT LeftFoot
          {
            OFFSET 0 19.3444 0
            CHANNELS 3 Zrotation Xrotation Yrotation
            JOINT LeftToeBase
            {
              OFFSET 0 16.3526 0
              CHANNELS 3 Zrotation Xrotation Yrotation
              End Site
              {
                OFFSET -0.0310629 7.91944 -0.912837
              }
            }
          }
        }
      }
    }
  }
}
MOTION
Frames: 12
Frame Time: 0.00208333
39.5345 98.5606 4.72541 0.936626 -2.21924 2.30716 0.146028 -1.18131 0.19829 0.28719 1.64067 0.380737 0.283226 3.28572 0.376207 -1.48547 17.6431 -1.09058 -0.322404 -9.23603 -1.59692 75.1693 -1.10769 -2.38006 93.4683 21.7792 26.5797 2.65643e-006 2.02977e-006 2.71167e-006 8.33389 0.0659955 -0.158913 8.06952e-006 -1.04397e-006 -3.06274 8.02907 -4.95144 0.69767 -66.8026 2.39763 -0.277268 -100.216 12.9409 -15.4811 -1.32963e-005 -1.84543e-006 -2.34952e-006 -10.8564 1.09995 0.534536 1.0838e-005 6.01976e-006 3 -8.02895 -4.95146 -0.697684 179.235 -1.43751 -0.116228 180 7.01566e-015 179.007 175.251 4.67487 179.818 8.82202e-007 7.64187e-007 0.0576351 -18.4473 67.8892 19.4566 8.14847 25.232 -3.49285 -179.001 1.18038 2.90986 4.54188e-006 -4.6773e-006 -1.11172 -3.34568 -11.6815 0.431485 -1.85713e-006 -6.85738e-006 -0.161109 19.2672 68.7351 -20.186 -8.1383 25.2325 3.48851 
39.5342 98.5601 4.72209 0.934244 -2.20562 2.29487 0.145398 -1.18382 0.198265 0.285868 1.63564 0.380767 0.281876 3.28068 0.376255 -1.4627 17.6544 -1.09372 -0.339495 -9.23132 -1.59631 75.1709 -1.10985 -2.38112 93.4524 21.7926 26.5359 2.65643e-006 2.02977e-006 2.71167e-006 8.37125 0.065989 -0.156914 8.06952e-006 -1.04397e-006 -3.06251 8.02907 -4.95144 0.69767 -66.7735 2.39702 -0.281092 -100.211 12.9391 -15.4461 -1.32963e-005 -1.84543e-006 -2.34952e-006 -10.8809 1.14218 0.538166 1.0838e-005 6.01976e-006 3 -8.02895 -4.95146 -0.697684 179.238 -1.41976 -0.123478 180 7.01566e-015 179.007 175.258 4.68291 179.818 8.82202e-007 7.64187e-007 0.0576351 -18.4452 67.8866 19.4544 8.14847 25.232 -3.49285 -178.997 1.19254 2.90279 4.54188e-006 -4.6773e-006 -1.11172 -3.3535 -11.6857 0.430286 -1.85713e-006 -6.85738e-006 -0.161143 19.2646 68.7322 -20.1832 -8.1383 25.2325 3.48851 
39.5298 98.5706 4.72217 0.931689 -2.19127 2.28208 0.144766 -1.1865 0.198285 0.284563 1.63029 0.380885 0.28054 3.27534 0.376391 -1.43983 17.6657 -1.09676 -0.356504 -9.22653 -1.59556 75.1728 -1.1118 -2.38213 93.4358 21.8061 26.4919 2.65643e-006 2.02977e-006 2.71167e-006 8.40886 0.0659825 -0.154919 8.06952e-006 -1.04397e-006 -3.0623 8.02907 -4.95144 0.69767 -66.7441 2.39605 -0.284768 -100.207 12.9378 -15.4114 -1.32963e-005 -1.84543e-006 -2.34952e-006 -10.9052 1.18388 0.541742 1.0838e-005 6.01976e-006 3 -8.02895 -4.95146 -0.697684 179.242 -1.40104 -0.131185 180 7.01566e-015 179.007 175.266 4.69111 179.818 8.82202e-007 7.64187e-007 0.0576351 -18.4431 67.8841 19.4521 8.14847 25.232 -3.49285 -178.993 1.20527 2.8954 4.54188e-006 -4.6773e-006 -1.11172 -3.36169 -11.6895 0.42903 -1.85713e-006 -6.85738e-006 -0.161166 19.262 68.7292 -20.1803 -8.1383 25.2325 3.48851 
39.5377 98.5673 4.72013 0.929016 -2.17639 2.26893 0.144131 -1.18928 0.198335 0.283268 1.62473 0.381065 0.279214 3.26977 0.376589 -1.41687 17.6769 -1.09974 -0.373456 -9.22168 -1.5947 75.175 -1.1136 -2.38309 93.4187 21.8198 26.4478 2.65643e-006 2.02977e-006 2.71167e-006 8.44666 0.065976 -0.152927 8.06952e-006 -1.04397e-006 -3.06209 8.02907 -4.95144 0.69767 -66.7145 2.39483 -0.288342 -100.203 12.9367 -15.377 -1.32963e-005 -1.84543e-006 -2.34952e-006 -10.9291 1.22523 0.54528 1.0838e-005 6.01976e-006 3 -8.02895 -4.95146 -0.697684 179.246 -1.38165 -0.139212 180 7.01566e-015 179.007 175.274 4.69942 179.818 8.82202e-007 7.64187e-007 0.0576351 -18.441 67.8815 19.4498 8.14847 25.232 -3.49285 -178.989 1.21839 2.88779 4.54188e-006 -4.6773e-006 -1.11172 -3.37013 -11.6931 0.427733 -1.85713e-006 -6.85738e-006 -0.161183 19.2592 68.7262 -20.1774 -8.1383 25.2325 3.48851 
39.538 98.5704 4.72052 0.926278 -2.16121 2.25557 0.143496 -1.19212 0.198403 0.28198 1.61904 0.38128 0.277893 3.26408 0.376821 -1.39388 17.6881 -1.10267 -0.390376 -9.2168 -1.59379 75.1774 -1.11533 -2.38404 93.4014 21.8336 26.4035 2.65643e-006 2.02977e-006 2.71167e-006 8.48457 0.0659694 -0.150937 8.06952e-006 -1.04397e-006 -3.06189 8.02907 -4.95144 0.69767 -66.6847 2.39347 -0.291857 -100.198 12.9359 -15.3427 -1.32963e-005 -1.84543e-006 -2.34952e-006 -10.953 1.26636 0.548796 1.0838e-005 6.01976e-006 3 -8.02895 -4.95146 -0.697684 179.25 -1.36188 -0.147422 180 7.01566e-015 179.007 175.283 4.70782 179.818 8.82202e-007 7.64187e-007 0.0576351 -18.4388 67.8789 19.4475 8.14847 25.232 -3.49285 -178.985 1.23174 2.88006 4.54188e-006 -4.6773e-006 -1.11172 -3.37872 -11.6965 0.426413 -1.85713e-006 -6.85738e-006 -0.161196 19.2565 68.7231 -20.1744 -8.1383 25.2325 3.48851 
39.5515 98.572 4.74523 0.923529 -2.14596 2.24217 0.14286 -1.19498 0.198476 0.280693 1.61332 0.381504 0.276573 3.25836 0.377063 -1.37087 17.6993 -1.1056 -0.407288 -9.2119 -1.59287 75.1798 -1.11703 -2.38499 93.384 21.8474 26.3593 2.65643e-006 2.02977e-006 2.71167e-006 8.5225 0.0659629 -0.148947 8.06952e-006 -1.04397e-006 -3.0617 8.02907 -4.95144 0.69767 -66.655 2.39207 -0.295357 -100.194 12.9351 -15.3085 -1.32963e-005 -1.84543e-006 -2.34952e-006 -10.9768 1.30744 0.552307 1.0838e-005 6.01976e-006 3 -8.02895 -4.95146 -0.697684 179.254 -1.342 -0.155678 180 7.01566e-015 179.007 175.291 4.71624 179.818 8.82202e-007 7.64187e-007 0.0576351 -18.4367 67.8763 19.4452 8.14847 25.232 -3.49285 -178.981 1.24514 2.87229 4.54188e-006 -4.6773e-006 -1.11172 -3.38734 -11.6999 0.425087 -1.85713e-006 -6.85738e-006 -0.161207 19.2537 68.72 -20.1714 -8.1383 25.2325 3.48851 
39.5496 98.5706 4.74122 0.920823 -2.13086 2.22887 0.142225 -1.19781 0.198539 0.279403 1.60766 0.38171 0.275251 3.2527 0.377287 -1.34788 17.7105 -1.10855 -0.424216 -9.20703 -1.59198 75.1822 -1.11877 -2.38594 93.3668 21.8611 26.3151 2.65643e-006 2.02977e-006 2.71167e-006 8.56038 0.0659563 -0.146956 8.06952e-006 -1.04397e-006 -3.0615 8.02907 -4.95144 0.69767 -66.6253 2.39074 -0.298887 -100.189 12.9342 -15.2742 -1.32963e-005 -1.84543e-006 -2.34952e-006 -11.0007 1.34862 0.55583 1.0838e-005 6.01976e-006 3 -8.02895 -4.95146 -0.697684 179.258 -1.32232 -0.163842 180 7.01566e-015 179.007 175.299 4.7246 179.818 8.82202e-007 7.64187e-007 0.0576351 -18.4345 67.8737 19.4429 8.14847 25.232 -3.49285 -178.977 1.25843 2.86459 4.54188e-006 -4.6773e-006 -1.11172 -3.39589 -11.7034 0.423773 -1.85713e-006 -6.85738e-006 -0.161221 19.2509 68.7169 -20.1685 -8.1383 25.2325 3.48851 
39.523 98.5688 4.72186 0.918213 -2.11613 2.21583 0.141591 -1.20056 0.198581 0.278105 1.60216 0.381872 0.273922 3.2472 0.377467 -1.32494 17.7217 -1.11155 -0.441185 -9.20219 -1.59115 75.1843 -1.12062 -2.38692 93.3499 21.8747 26.271 2.65643e-006 2.02977e-006 2.71167e-006 8.59813 0.0659498 -0.144963 8.06952e-006 -1.04397e-006 -3.06129 8.02907 -4.95144 0.69767 -66.5957 2.3896 -0.30249 -100.185 12.9331 -15.2397 -1.32963e-005 -1.84543e-006 -2.34952e-006 -11.0248 1.39007 0.55938 1.0838e-005 6.01976e-006 3 -8.02895 -4.95146 -0.697684 179.262 -1.30313 -0.171778 180 7.01566e-015 179.007 175.307 4.7329 179.818 8.82202e-007 7.64187e-007 0.0576351 -18.4324 67.8711 19.4406 8.14847 25.232 -3.49285 -178.973 1.27144 2.85704 4.54188e-006 -4.6773e-006 -1.11172 -3.40426 -11.707 0.422488 -1.85713e-006 -6.85738e-006 -0.161239 19.2482 68.7139 -20.1655 -8.1383 25.2325 3.48851 
39.5306 98.557 4.72833 0.915751 -2.102 2.20318 0.14096 -1.20319 0.198587 0.276795 1.5969 0.381964 0.272582 3.24195 0.377576 -1.30209 17.733 -1.11462 -0.45822 -9.19743 -1.59044 75.1861 -1.12263 -2.38794 93.3336 21.8881 26.227 2.65643e-006 2.02977e-006 2.71167e-006 8.63566 0.0659433 -0.142967 8.06952e-006 -1.04397e-006 -3.06107 8.02907 -4.95144 0.69767 -66.5664 2.38874 -0.306211 -100.18 12.9316 -15.2049 -1.32963e-005 -1.84543e-006 -2.34952e-006 -11.0492 1.43193 0.562975 1.0838e-005 6.01976e-006 3 -8.02895 -4.95146 -0.697684 179.266 -1.2847 -0.179347 180 7.01566e-015 179.007 175.315 4.74105 179.817 8.82202e-007 7.64187e-007 0.0576351 -18.4303 67.8685 19.4383 8.14847 25.232 -3.49285 -178.969 1.284 2.84975 4.54188e-006 -4.6773e-006 -1.11172 -3.41234 -11.711 0.421248 -1.85713e-006 -6.85738e-006 -0.161266 19.2456 68.7109 -20.1627 -8.1383 25.2325 3.48851 
39.5384 98.5631 4.77457 0.91349 -2.08868 2.1911 0.140331 -1.20564 0.198545 0.275468 1.592 0.381958 0.271227 3.23704 0.377589 -1.27935 17.7444 -1.1178 -0.475344 -9.19276 -1.58989 75.1875 -1.12487 -2.38902 93.3181 21.9013 26.1832 2.65643e-006 2.02977e-006 2.71167e-006 8.67291 0.0659369 -0.140966 8.06952e-006 -1.04397e-006 -3.06084 8.02907 -4.95144 0.69767 -66.5374 2.38827 -0.310093 -100.176 12.9296 -15.1698 -1.32963e-005 -1.84543e-006 -2.34952e-006 -11.0739 1.47437 0.56663 1.0838e-005 6.01976e-006 3 -8.02895 -4.95146 -0.697684 179.269 -1.26733 -0.186413 180 7.01566e-015 179.007 175.322 4.74901 179.817 8.82202e-007 7.64187e-007 0.0576351 -18.4283 67.866 19.4361 8.14847 25.232 -3.49285 -178.965 1.29593 2.8428 4.54188e-006 -4.6773e-006 -1.11172 -3.42002 -11.7153 0.420073 -1.85713e-006 -6.85738e-006 -0.161304 19.243 68.7081 -20.16 -8.1383 25.2325 3.48851 
39.5322 98.5541 4.76556 0.911481 -2.07641 2.17973 0.139706 -1.20787 0.198441 0.274118 1.58753 0.381829 0.269852 3.23258 0.377479 -1.25677 17.7559 -1.12112 -0.492583 -9.1882 -1.58953 75.1883 -1.12739 -2.39018 93.3034 21.9142 26.1397 2.65643e-006 2.02977e-006 2.71167e-006 8.7098 0.0659305 -0.13896 8.06952e-006 -1.04397e-006 -3.0606 8.02907 -4.95144 0.69767 -66.5088 2.38832 -0.31418 -100.172 12.9269 -15.1341 -1.32963e-005 -1.84543e-006 -2.34952e-006 -11.0991 1.51755 0.570363 1.0838e-005 6.01976e-006 3 -8.02895 -4.95146 -0.697684 179.272 -1.25131 -0.192839 180 7.01566e-015 179.007 175.329 4.75674 179.817 8.82202e-007 7.64187e-007 0.0576351 -18.4263 67.8635 19.4339 8.14847 25.232 -3.49285 -178.962 1.30706 2.83629 4.54188e-006 -4.6773e-006 -1.11172 -3.42719 -11.7202 0.418978 -1.85713e-006 -6.85738e-006 -0.161356 19.2406 68.7055 -20.1575 -8.1383 25.2325 3.48851 
39.5262 98.5496 4.73952 0.909776 -2.0654 2.16922 0.139085 -1.20983 0.198262 0.272741 1.5836 0.38155 0.268455 3.22864 0.37722 -1.23437 17.7675 -1.1246 -0.50996 -9.18379 -1.58942 75.1885 -1.13027 -2.39142 93.29 21.9266 26.0965 2.65643e-006 2.02977e-006 2.71167e-006 8.74624 0.0659241 -0.136947 8.06952e-006 -1.04397e-006 -3.06033 8.02907 -4.95144 0.69767 -66.4808 2.38897 -0.318517 -100.168 12.9235 -15.0979 -1.32963e-005 -1.84543e-006 -2.34952e-006 -11.1249 1.56161 0.574189 1.0838e-005 6.01976e-006 3 -8.02895 -4.95146 -0.697684 179.275 -1.23692 -0.198487 180 7.01566e-015 179.007 175.335 4.76417 179.817 8.82202e-007 7.64187e-007 0.0576351 -18.4243 67.8611 19.4318 8.14847 25.232 -3.49285 -178.96 1.31723 2.83031 4.54188e-006 -4.6773e-006 -1.11172 -3.43374 -11.7257 0.417981 -1.85713e-006 -6.85738e-006 -0.161426 19.2384 68.703 -20.1551 -8.1383 25.2325 3.48851 
